<?xml version="1.0" encoding="utf-8"?>
<!-- Generator: Adobe Illustrator 27.5.0, SVG Export Plug-In . SVG Version: 6.00 Build 0)  -->
<svg version="1.1" id="Layer_1" xmlns="http://www.w3.org/2000/svg" xmlns:xlink="http://www.w3.org/1999/xlink" x="0px" y="0px"
	 viewBox="0 0 120 120" style="enable-background:new 0 0 120 120;" xml:space="preserve">
<style type="text/css">
	.st0{fill:#D0801F;}
	.st1{fill:#FFDA6F;}
	.st2{fill:#FEDFB3;}
	.st3{fill:#D1801F;}
	.st4{fill:#E2A139;}
	.st5{fill:#EEC997;}
</style>
<g id="Head">
	<g>
		<ellipse class="st0" cx="60" cy="62" rx="57.6" ry="56.3"/>
		<ellipse class="st1" cx="60" cy="58" rx="57.6" ry="56.3"/>
		<ellipse class="st2" cx="59.4" cy="60" rx="39.8" ry="38.4"/>
		<ellipse class="st3" cx="59.4" cy="54.7" rx="41" ry="38.4"/>
		<ellipse class="st4" cx="59.4" cy="58" rx="41" ry="39.1"/>
		<path class="st5" d="M42.1,45.4c0.2-2.9,1-4.9,1.3-5.3c0.4-0.8,1-2.4,2.7-3.9c0.6-0.6,1.6-1.4,3.9-2.7c1.7-0.9,4.3-2.1,8-2.7
			c2.4-0.4,7-1,11.9,1.3c0.6,0.2,3.1,1.4,5.3,3.9c0.9,0.9,2.9,3.2,3.9,6.6c0.9,3.1,0.6,5.6,0,10.6c-0.4,2.8-0.8,4.1-1.3,5.3
			c-0.8,1.7-1.7,2.8-2.7,3.9c-1,1.3-1.6,2-2.7,2.7c-1.4,0.9-2.1,0.6-2.7,1.3c-1,1.6,1,4.9,1.3,5.3c1.4,2.1,2.9,2.9,2.7,3.9
			c-0.2,0.4-0.4,0.6-1.3,1.3c-3.2,2.3-3.9,2.7-3.9,2.7c-1.9,0.9-2.7,1.3-5.3,2.7c-2.5,1.3-5.3,2.7-5.3,2.7l0,0
			c-1.2,1.3-1.3,1.3-1.3,1.3c-0.2-0.2,0.2-1.2,0-2.7c-0.2-1.2-0.4-1.3-1.3-3.9c-0.4-1.2-1.2-3.7-1.3-3.9c-0.6-1.7-0.8-2.3-1.3-2.7
			c-0.6-0.2-0.8-0.2-2.7,0c-1.9,0.2-1.7-0.2-3.9,0c-2,0.2-2.3,0.2-2.7,0c-1.3-0.8-1.3-3.5-1.3-3.9c0-0.2,0-1.3,0-1.3l0,0
			c-1.3-1-1.3-1.3-1.3-1.3c0-0.6,1.3-0.8,1.3-1.3c0-0.6-1-0.6-1.3-1.3c-0.2-0.6,0-1.3,0-1.3l0,0c0.4,1.2,0-1.3,0-1.3
			c-0.2-0.2-0.6,0.2-1.3,0c-0.6-0.2-1.2-0.8-1.3-1.3c0-0.2-0.2-0.6,0-1.3c0.4-1.3,1.7-1.6,2.7-2.7c0.8-0.9,1-2,1.3-3.9
			C42.6,49,41.8,48.6,42.1,45.4z"/>
		<path class="st3" d="M42.1,44.1c0.2-2.9,1-4.9,1.3-5.3c0.4-0.8,1-2.4,2.7-3.9c0.6-0.6,1.6-1.4,3.9-2.7c1.7-0.9,4.3-2.1,8-2.7
			c2.4-0.4,7-1,11.9,1.3c0.6,0.2,3.1,1.4,5.3,3.9c0.9,0.9,2.9,3.2,3.9,6.6c0.9,3.1,0.6,5.6,0,10.6c-0.4,2.8-0.8,4.1-1.3,5.3
			c-0.8,1.7-1.7,2.8-2.7,3.9c-1,1.3-1.6,2-2.7,2.7c-1.4,0.9-2.1,0.6-2.7,1.3c-1,1.6,1,4.9,1.3,5.3c1.4,2.1,2.9,2.9,2.7,3.9
			c-0.2,0.4-0.4,0.6-1.3,1.3c-3.2,2.3-3.9,2.7-3.9,2.7c-1.9,0.9-2.7,1.3-5.3,2.7c-2.5,1.3-5.3,2.7-5.3,2.7l0,0
			c-1.2,1.3-1.3,1.3-1.3,1.3c-0.2-0.2,0.2-1.2,0-2.7c-0.2-1.2-0.4-1.3-1.3-3.9c-0.4-1.2-1.2-3.7-1.3-3.9c-0.6-1.7-0.8-2.3-1.3-2.7
			c-0.6-0.2-0.8-0.2-2.7,0c-1.9,0.2-1.7-0.2-3.9,0c-2,0.2-2.3,0.2-2.7,0c-1.3-0.8-1.3-3.5-1.3-3.9c0-0.2,0-1.3,0-1.3l0,0
			c-1.3-1-1.3-1.3-1.3-1.3c0-0.6,1.3-0.8,1.3-1.3c0-0.6-1-0.6-1.3-1.3c-0.2-0.6,0-1.3,0-1.3l0,0c0.4,1.2,0-1.3,0-1.3
			c-0.2-0.2-0.6,0.2-1.3,0c-0.6-0.2-1.2-0.8-1.3-1.3c0-0.2-0.2-0.6,0-1.3c0.4-1.3,1.7-1.6,2.7-2.7c0.8-0.9,1-2,1.3-3.9
			C42.6,47.7,41.8,47.3,42.1,44.1z"/>
	</g>
</g>
</svg>
