<?xml version="1.0" encoding="utf-8"?>
<!-- Generator: Adobe Illustrator 27.5.0, SVG Export Plug-In . SVG Version: 6.00 Build 0)  -->
<svg version="1.1" id="Layer_1" xmlns="http://www.w3.org/2000/svg" xmlns:xlink="http://www.w3.org/1999/xlink" x="0px" y="0px"
	 viewBox="0 0 250 150" style="enable-background:new 0 0 250 150;" xml:space="preserve">
<style type="text/css">
	.st0{display:none;}
	.st1{fill:#D0801F;}
	.st2{fill:#FFDA6F;}
	.st3{fill:#FEDFB3;}
	.st4{fill:#D1801F;}
	.st5{fill:#E2A139;}
	.st6{fill:#EEC997;}
	.st7{display:inline;fill:#D0801F;}
	.st8{display:inline;fill:#FFDA6F;}
	.st9{display:inline;fill:#FEDFB3;}
	.st10{display:inline;fill:#D1801F;}
	.st11{display:inline;fill:#E2A139;}
	.st12{display:inline;}
	.st13{fill:#EAAF4C;}
	.st14{fill:#A35200;}
	.st15{fill:#A25202;}
</style>
<g id="Layer_1_00000057121461192736259940000005999451680628267154_" class="st0">
</g>
<g id="Head">
	<g>
		<ellipse class="st1" cx="127.2" cy="77.5" rx="73" ry="71.3"/>
		<ellipse class="st2" cx="127.2" cy="72.5" rx="73" ry="71.3"/>
		<ellipse class="st3" cx="126.4" cy="75" rx="50.4" ry="48.7"/>
		<ellipse class="st4" cx="126.4" cy="68.3" rx="52" ry="48.7"/>
		<ellipse class="st5" cx="126.4" cy="72.5" rx="52" ry="49.5"/>
		<path class="st6" d="M104.5,56.5c0.3-3.7,1.3-6.2,1.7-6.7c0.5-1,1.3-3,3.4-5c0.7-0.7,2-1.8,5-3.4c2.2-1.2,5.5-2.7,10.1-3.4
			c3-0.5,8.9-1.3,15.1,1.7c0.8,0.3,3.9,1.8,6.7,5c1.2,1.2,3.7,4,5,8.4c1.2,3.9,0.8,7.1,0,13.4c-0.5,3.5-1,5.2-1.7,6.7
			c-1,2.2-2.2,3.5-3.4,5c-1.3,1.7-2,2.5-3.4,3.4c-1.8,1.2-2.7,0.8-3.4,1.7c-1.3,2,1.3,6.2,1.7,6.7c1.8,2.7,3.7,3.7,3.4,5
			c-0.2,0.5-0.5,0.8-1.7,1.7c-4,2.9-5,3.4-5,3.4c-2.4,1.2-3.4,1.7-6.7,3.4c-3.2,1.7-6.7,3.4-6.7,3.4l0,0c-1.5,1.7-1.7,1.7-1.7,1.7
			c-0.3-0.2,0.2-1.5,0-3.4c-0.2-1.5-0.5-1.7-1.7-5c-0.5-1.5-1.5-4.7-1.7-5c-0.7-2.2-1-2.9-1.7-3.4c-0.7-0.3-1-0.2-3.4,0
			c-2.4,0.2-2.2-0.2-5,0c-2.5,0.2-2.9,0.3-3.4,0c-1.7-1-1.7-4.4-1.7-5c0-0.2,0-1.7,0-1.7l0,0c-1.7-1.3-1.7-1.7-1.7-1.7
			c0-0.8,1.7-1,1.7-1.7c0-0.7-1.3-0.7-1.7-1.7c-0.2-0.7,0-1.7,0-1.7l0,0c0.5,1.5,0-1.7,0-1.7c-0.3-0.3-0.8,0.2-1.7,0
			c-0.8-0.2-1.5-1-1.7-1.7c0-0.2-0.3-0.8,0-1.7c0.5-1.7,2.2-2,3.4-3.4c1-1.2,1.3-2.5,1.7-5C105.2,61.1,104.2,60.6,104.5,56.5z"/>
		<path class="st4" d="M104.5,54.9c0.3-3.7,1.3-6.2,1.7-6.7c0.5-1,1.3-3,3.4-5c0.7-0.7,2-1.8,5-3.4c2.2-1.2,5.5-2.7,10.1-3.4
			c3-0.5,8.9-1.3,15.1,1.7c0.8,0.3,3.9,1.8,6.7,5c1.2,1.2,3.7,4,5,8.4c1.2,3.9,0.8,7.1,0,13.4c-0.5,3.5-1,5.2-1.7,6.7
			c-1,2.2-2.2,3.5-3.4,5c-1.3,1.7-2,2.5-3.4,3.4c-1.8,1.2-2.7,0.8-3.4,1.7c-1.3,2,1.3,6.2,1.7,6.7c1.8,2.7,3.7,3.7,3.4,5
			c-0.2,0.5-0.5,0.8-1.7,1.7c-4,2.9-5,3.4-5,3.4c-2.4,1.2-3.4,1.7-6.7,3.4c-3.2,1.7-6.7,3.4-6.7,3.4l0,0c-1.5,1.7-1.7,1.7-1.7,1.7
			c-0.3-0.2,0.2-1.5,0-3.4c-0.2-1.5-0.5-1.7-1.7-5c-0.5-1.5-1.5-4.7-1.7-5c-0.7-2.2-1-2.9-1.7-3.4c-0.7-0.3-1-0.2-3.4,0
			c-2.4,0.2-2.2-0.2-5,0c-2.5,0.2-2.9,0.3-3.4,0c-1.7-1-1.7-4.4-1.7-5c0-0.2,0-1.7,0-1.7l0,0c-1.7-1.3-1.7-1.7-1.7-1.7
			c0-0.8,1.7-1,1.7-1.7s-1.3-0.7-1.7-1.7c-0.2-0.7,0-1.7,0-1.7l0,0c0.5,1.5,0-1.7,0-1.7c-0.3-0.3-0.8,0.2-1.7,0
			c-0.8-0.2-1.5-1-1.7-1.7c0-0.2-0.3-0.8,0-1.7c0.5-1.7,2.2-2,3.4-3.4c1-1.2,1.3-2.5,1.7-5C105.2,59.4,104.2,58.9,104.5,54.9z"/>
	</g>
</g>
<g id="Layer_3" class="st0">
	<ellipse class="st7" cx="203.3" cy="71" rx="43.5" ry="42.5"/>
	<ellipse class="st8" cx="203.3" cy="68" rx="43.5" ry="42.5"/>
	<ellipse class="st9" cx="202.8" cy="69.5" rx="30" ry="29"/>
	<ellipse class="st10" cx="202.8" cy="65.5" rx="31" ry="29"/>
	<ellipse class="st11" cx="202.8" cy="68" rx="31" ry="29.5"/>
</g>
<g id="Layer_4" class="st0">
	<g class="st12">
		<g>
			<g>
				<g>
					<path class="st13" d="M213.5,75.4c1.5-0.3,2.7-1.1,3.9-2.1c1.2-0.9,2.1-2,2.7-3.4c1.2-2.7,1.7-5.7,1.3-8.7
						c-0.4-2.9-2.3-4.7-5.1-5.4c-2.7-0.7-5.8-0.3-7.8,1.7c-2,2.1-2.7,6.4,0.5,7.8c0.7,0.3,1.6,0.2,2.1-0.5c0.4-0.6,0.2-1.7-0.5-2.1
						c-0.9-0.4-1-1.3-0.6-2.1s1.1-1.5,1.9-1.8c1.8-0.7,5.1-0.4,6.1,1.5c0.5,1,0.6,2.3,0.6,3.4c0,1.3-0.3,2.5-0.7,3.7
						s-0.9,2.4-1.9,3.2c-1,0.8-2,1.6-3.3,1.8C210.8,72.8,211.6,75.7,213.5,75.4L213.5,75.4z"/>
				</g>
			</g>
			<g>
				<g>
					<path class="st13" d="M202.4,70.2c-0.5-1.2-1.3-1.9-2.4-2.6c-1-0.6-1.8-1.5-2.7-2.1c-1.8-1.2-4-2.2-6.1-2.2s-4.2,0.9-5.4,2.7
						c-1.2,1.7-2,4.8,0,6.2c0.7,0.5,1.7,0.1,2.1-0.5c0.4-0.8,0.1-1.6-0.5-2.1c0.2,0.1,0.2,0.4,0.3,0.2v-0.3c0-0.4,0.1-0.7,0.2-1.1
						c0.2-0.5,0.5-1,1-1.4c0.9-0.7,2.2-0.9,3.3-0.7c1.4,0.3,2.9,1.1,4,1.9c0.6,0.5,1.2,1.1,1.9,1.5c0.4,0.3,1.4,0.6,1.6,1.2
						c0.3,0.8,1,1.3,1.8,1C202.1,71.8,202.7,70.9,202.4,70.2L202.4,70.2z"/>
				</g>
			</g>
			<g>
				<g>
					<path class="st13" d="M199.1,70.9c0.4,0.6,0.9,0.9,1.4,1.4c0.6,0.6,1,1.2,1.7,1.7c1.1,0.8,2.5,1.4,3.9,1.8
						c2.8,0.7,5.8,0.6,8.4-0.4c0.8-0.3,1.3-1,1-1.8c-0.2-0.7-1.1-1.3-1.8-1c-2.1,0.8-4.4,1.1-6.6,0.5c-1.1-0.3-2.2-0.7-3.1-1.3
						c-0.5-0.3-0.8-0.8-1.2-1.2c-0.3-0.4-0.8-0.6-1.1-1C200.7,67.8,198.1,69.3,199.1,70.9L199.1,70.9z"/>
				</g>
			</g>
		</g>
	</g>
	<g class="st12">
		<g>
			<path class="st14" d="M186,71.9c1.9,0,1.9-3,0-3S184.1,71.9,186,71.9L186,71.9z"/>
		</g>
	</g>
	<g class="st12">
		<g>
			<path class="st14" d="M186.1,72c1.9,0,1.9-3,0-3C184.2,69,184.2,72,186.1,72L186.1,72z"/>
		</g>
	</g>
	<g class="st12">
		<g>
			<path class="st14" d="M186.1,72.2c1.9,0,1.9-3,0-3C184.2,69.2,184.2,72.2,186.1,72.2L186.1,72.2z"/>
		</g>
	</g>
	<g class="st12">
		<g>
			<path class="st14" d="M187.6,71c0-0.1,0-0.1,0-0.2s0-0.1,0-0.2c0-0.2,0-0.3-0.1-0.4s-0.1-0.2-0.2-0.4l0,0
				c-0.1-0.1-0.2-0.2-0.3-0.3c0.1,0.1,0.2,0.2,0.2,0.3c0,0,0-0.1-0.1-0.1c0.1,0.1,0.1,0.2,0.2,0.4c0,0,0,0,0-0.1
				c0,0.1,0,0.3,0.1,0.4v-0.1c0,0.1,0,0.3-0.1,0.4c0-0.2,0.1-0.5,0.2-0.7c-0.1,0.1-0.1,0.2-0.2,0.4c0.1-0.2,0.1-0.3,0.2-0.5
				c0.1-0.2,0.2-0.4,0.2-0.6s0-0.4,0-0.6s-0.1-0.4-0.3-0.5c-0.1-0.2-0.2-0.3-0.4-0.4c-0.3-0.2-0.8-0.3-1.2-0.2
				c-0.4,0.1-0.7,0.3-0.9,0.7c-0.2,0.4-0.4,0.8-0.5,1.2c-0.1,0.2-0.1,0.4-0.1,0.6c0,0.3,0,0.5,0,0.7c0.1,0.3,0.3,0.5,0.5,0.8
				c-0.1-0.1-0.2-0.2-0.2-0.3c0,0,0,0,0,0.1c-0.1-0.1-0.1-0.2-0.2-0.4l0,0c0-0.1,0-0.3-0.1-0.4l0,0c0-0.1,0-0.3,0.1-0.4l0,0
				c-0.1,0.2-0.1,0.4,0,0.6c0,0.2,0.1,0.4,0.2,0.6c0.1,0.2,0.2,0.3,0.4,0.4c0.1,0.1,0.3,0.2,0.5,0.3c0.1,0,0.3,0,0.4,0.1
				c0.3,0,0.5-0.1,0.8-0.2c0.1-0.1,0.2-0.2,0.3-0.2C187.4,71.5,187.5,71.3,187.6,71L187.6,71z"/>
		</g>
	</g>
	<g class="st12">
		<g>
			<path class="st15" d="M187.8,70.2c-0.1-0.4,0.6-1.4,0.8-1.7c0.3-0.5,0.5-1,1-1.2c1.2-0.5,2.7-0.3,3.9,0.1
				c2.5,0.8,4.3,2.9,6.3,4.6c3.8,3.2,8.8,4.4,13.6,3.5c1.9-0.4,1.1-3.3-0.8-2.9c-2.8,0.5-5.7,0.2-8.3-1.1c-2.7-1.4-4.6-3.8-7.1-5.5
				c-2.4-1.5-5.5-2.4-8.2-1.5c-1.3,0.4-2.2,1.2-2.8,2.4c-0.7,1.3-1.7,2.7-1.2,4.2C185.4,72.9,188.3,72.1,187.8,70.2L187.8,70.2z"/>
		</g>
	</g>
	<g class="st12">
		<g>
			<path class="st15" d="M214.8,58.6c1,0.8,1.9,1.6,2.7,2.5c0.8,1,1.1,2,1.1,3.3c0.1,2.4-1,4.3-2.9,5.7c-2.1,1.5-4.4,2.3-7,2.4
				c-1.2,0-2.4,0-3.5-0.6c-1-0.6-2.2-1.3-2.8-2.2c-0.8,0.6-1.6,1.2-2.4,1.8c0.1,0.1,0.2,0.1,0.2,0.2c0.4-0.9,0.7-1.7,1.1-2.6
				c-0.5,0-0.8-0.3-1.2-0.6c-1.3-1.4-3.5,0.7-2.1,2.1c0.9,0.9,2,1.4,3.3,1.5c1.2,0.1,2-1.8,1.1-2.6c-0.1-0.1-0.2-0.1-0.2-0.2
				c-1.2-1-3.4,0.3-2.4,1.8c1.8,2.6,5.1,4.3,8.2,4.3c3.5,0.1,6.7-0.9,9.6-3c2.5-1.9,4.1-4.7,4-7.9c0-1.6-0.3-3.2-1.2-4.6
				c-0.9-1.4-2.2-2.5-3.5-3.5c-0.6-0.5-1.5-0.6-2.1,0C214.3,56.9,214.2,58.1,214.8,58.6L214.8,58.6z"/>
		</g>
	</g>
	<g class="st12">
		<g>
			<g>
				<path class="st15" d="M213.2,75.3c1.4-0.3,2.5-1,3.6-1.8c1.3-1,2.2-1.9,2.9-3.4c1.2-2.6,1.7-5.6,1.3-8.4
					c-0.2-1.4-0.7-2.7-1.7-3.7s-2.3-1.5-3.6-1.9c-2.7-0.6-5.7-0.3-7.7,1.8c-2.2,2.3-2.3,6.4,1,7.8c0.7,0.3,1.7-0.3,1.8-1
					c0.2-0.9-0.3-1.5-1-1.8s-0.4-1.6-0.1-2.1c0.4-0.8,1.2-1.4,2.1-1.6c1.8-0.5,5-0.2,5.9,1.7c0.5,1,0.5,2.3,0.5,3.4
					c0,1.2-0.3,2.5-0.7,3.7s-1,2.2-2,3c-0.9,0.7-1.9,1.4-3,1.6c-0.8,0.2-1.3,1.1-1,1.8C211.5,75.1,212.4,75.5,213.2,75.3L213.2,75.3
					z"/>
			</g>
		</g>
		<g>
			<g>
				<path class="st15" d="M202.2,70.2c-0.5-1.2-1.3-1.9-2.4-2.6c-1-0.6-1.7-1.4-2.7-2.1c-1.8-1.2-3.9-2.2-6.1-2.2
					c-2.1,0-4.1,0.9-5.4,2.7c-1.2,1.6-2,4.8,0,6.1c0.7,0.5,1.7,0.1,2.1-0.5c0.4-0.8,0.1-1.6-0.5-2.1c0.2,0.1,0.2,0.4,0.3,0.3v-0.3
					c0-0.3,0.1-0.7,0.2-1c0.2-0.5,0.5-1,0.9-1.3c0.9-0.7,2.2-0.9,3.3-0.7c1.4,0.3,2.9,1.1,4,1.9c0.6,0.5,1.2,1.1,1.8,1.5
					c0.4,0.3,1.4,0.6,1.6,1.1c0.3,0.8,1,1.3,1.8,1C201.9,71.8,202.5,71,202.2,70.2L202.2,70.2z"/>
			</g>
		</g>
		<g>
			<g>
				<path class="st15" d="M198.9,70.9c0.4,0.6,0.9,0.9,1.4,1.4c0.6,0.6,1,1.2,1.6,1.6c1.1,0.8,2.5,1.4,3.8,1.7
					c2.7,0.7,5.7,0.6,8.4-0.4c0.8-0.3,1.3-1,1-1.8c-0.2-0.7-1.1-1.3-1.8-1c-2.1,0.8-4.4,1-6.6,0.5c-1.1-0.3-2.2-0.7-3.1-1.3
					c-0.5-0.3-0.8-0.8-1.1-1.2c-0.3-0.3-0.8-0.6-1.1-1c-0.4-0.7-1.3-1-2.1-0.5C198.8,69.3,198.5,70.2,198.9,70.9L198.9,70.9z"/>
			</g>
		</g>
	</g>
</g>
</svg>
