<?xml version="1.0" encoding="utf-8"?>
<!-- Generator: Adobe Illustrator 27.5.0, SVG Export Plug-In . SVG Version: 6.00 Build 0)  -->
<svg version="1.1" id="Layer_1" xmlns="http://www.w3.org/2000/svg" xmlns:xlink="http://www.w3.org/1999/xlink" x="0px" y="0px"
	 viewBox="0 0 120 120" style="enable-background:new 0 0 120 120;" xml:space="preserve">
<style type="text/css">
	.st0{display:none;}
	.st1{display:inline;}
	.st2{fill:#D0801F;}
	.st3{fill:#FFDA6F;}
	.st4{fill:#FEDFB3;}
	.st5{fill:#D1801F;}
	.st6{fill:#E2A139;}
	.st7{fill:#EEC997;}
	.st8{fill:#EAAF4C;}
	.st9{fill:#A35200;}
	.st10{fill:#A25202;}
</style>
<g id="Head" class="st0">
	<g class="st1">
		<ellipse class="st2" cx="60" cy="62" rx="57.6" ry="56.3"/>
		<ellipse class="st3" cx="60" cy="58" rx="57.6" ry="56.3"/>
		<ellipse class="st4" cx="59.4" cy="60" rx="39.8" ry="38.4"/>
		<ellipse class="st5" cx="59.4" cy="54.7" rx="41" ry="38.4"/>
		<ellipse class="st6" cx="59.4" cy="58" rx="41" ry="39.1"/>
		<path class="st7" d="M42.1,45.4c0.2-2.9,1-4.9,1.3-5.3c0.4-0.8,1-2.4,2.7-3.9c0.6-0.6,1.6-1.4,3.9-2.7c1.7-0.9,4.3-2.1,8-2.7
			c2.4-0.4,7-1,11.9,1.3c0.6,0.2,3.1,1.4,5.3,3.9c0.9,0.9,2.9,3.2,3.9,6.6c0.9,3.1,0.6,5.6,0,10.6c-0.4,2.8-0.8,4.1-1.3,5.3
			c-0.8,1.7-1.7,2.8-2.7,3.9c-1,1.3-1.6,2-2.7,2.7c-1.4,0.9-2.1,0.6-2.7,1.3c-1,1.6,1,4.9,1.3,5.3c1.4,2.1,2.9,2.9,2.7,3.9
			c-0.2,0.4-0.4,0.6-1.3,1.3c-3.2,2.3-3.9,2.7-3.9,2.7c-1.9,0.9-2.7,1.3-5.3,2.7c-2.5,1.3-5.3,2.7-5.3,2.7l0,0
			c-1.2,1.3-1.3,1.3-1.3,1.3c-0.2-0.2,0.2-1.2,0-2.7c-0.2-1.2-0.4-1.3-1.3-3.9c-0.4-1.2-1.2-3.7-1.3-3.9c-0.6-1.7-0.8-2.3-1.3-2.7
			c-0.6-0.2-0.8-0.2-2.7,0c-1.9,0.2-1.7-0.2-3.9,0c-2,0.2-2.3,0.2-2.7,0c-1.3-0.8-1.3-3.5-1.3-3.9c0-0.2,0-1.3,0-1.3l0,0
			c-1.3-1-1.3-1.3-1.3-1.3c0-0.6,1.3-0.8,1.3-1.3c0-0.6-1-0.6-1.3-1.3c-0.2-0.6,0-1.3,0-1.3l0,0c0.4,1.2,0-1.3,0-1.3
			c-0.2-0.2-0.6,0.2-1.3,0c-0.6-0.2-1.2-0.8-1.3-1.3c0-0.2-0.2-0.6,0-1.3c0.4-1.3,1.7-1.6,2.7-2.7c0.8-0.9,1-2,1.3-3.9
			C42.6,49,41.8,48.6,42.1,45.4z"/>
		<path class="st5" d="M42.1,44.1c0.2-2.9,1-4.9,1.3-5.3c0.4-0.8,1-2.4,2.7-3.9c0.6-0.6,1.6-1.4,3.9-2.7c1.7-0.9,4.3-2.1,8-2.7
			c2.4-0.4,7-1,11.9,1.3c0.6,0.2,3.1,1.4,5.3,3.9c0.9,0.9,2.9,3.2,3.9,6.6c0.9,3.1,0.6,5.6,0,10.6c-0.4,2.8-0.8,4.1-1.3,5.3
			c-0.8,1.7-1.7,2.8-2.7,3.9c-1,1.3-1.6,2-2.7,2.7c-1.4,0.9-2.1,0.6-2.7,1.3c-1,1.6,1,4.9,1.3,5.3c1.4,2.1,2.9,2.9,2.7,3.9
			c-0.2,0.4-0.4,0.6-1.3,1.3c-3.2,2.3-3.9,2.7-3.9,2.7c-1.9,0.9-2.7,1.3-5.3,2.7c-2.5,1.3-5.3,2.7-5.3,2.7l0,0
			c-1.2,1.3-1.3,1.3-1.3,1.3c-0.2-0.2,0.2-1.2,0-2.7c-0.2-1.2-0.4-1.3-1.3-3.9c-0.4-1.2-1.2-3.7-1.3-3.9c-0.6-1.7-0.8-2.3-1.3-2.7
			c-0.6-0.2-0.8-0.2-2.7,0c-1.9,0.2-1.7-0.2-3.9,0c-2,0.2-2.3,0.2-2.7,0c-1.3-0.8-1.3-3.5-1.3-3.9c0-0.2,0-1.3,0-1.3l0,0
			c-1.3-1-1.3-1.3-1.3-1.3c0-0.6,1.3-0.8,1.3-1.3c0-0.6-1-0.6-1.3-1.3c-0.2-0.6,0-1.3,0-1.3l0,0c0.4,1.2,0-1.3,0-1.3
			c-0.2-0.2-0.6,0.2-1.3,0c-0.6-0.2-1.2-0.8-1.3-1.3c0-0.2-0.2-0.6,0-1.3c0.4-1.3,1.7-1.6,2.7-2.7c0.8-0.9,1-2,1.3-3.9
			C42.6,47.7,41.8,47.3,42.1,44.1z"/>
	</g>
</g>
<g id="Layer_4">
	<g>
		<ellipse class="st2" cx="60" cy="62" rx="57.1" ry="56"/>
		<ellipse class="st3" cx="60" cy="58" rx="57.1" ry="56"/>
		<ellipse class="st4" cx="59.4" cy="60" rx="39.4" ry="38.2"/>
		<ellipse class="st5" cx="59.4" cy="54.7" rx="40.8" ry="38.2"/>
		<ellipse class="st6" cx="59.4" cy="58" rx="40.8" ry="38.9"/>
		<g>
			<g>
				<g>
					<g>
						<path class="st8" d="M73.4,67.8c2-0.4,3.6-1.4,5.1-2.8c1.6-1.2,2.8-2.6,3.6-4.5c1.6-3.6,2.2-7.5,1.7-11.5
							c-0.6-3.8-3-6.2-6.7-7.1c-3.6-1-7.6-0.4-10.2,2.2c-2.6,2.8-3.6,8.4,0.6,10.3c1,0.4,2.1,0.2,2.8-0.6c0.6-0.8,0.2-2.2-0.6-2.8
							c-1.2-0.6-1.4-1.7-0.8-2.8c0.6-1,1.4-2,2.5-2.4c2.4-1,6.7-0.6,8,2c0.6,1.4,0.8,3,0.8,4.5c0,1.7-0.4,3.3-1,4.9
							c-0.6,1.6-1.2,3.2-2.5,4.2c-1.4,1-2.6,2.1-4.4,2.4C69.9,64.3,70.9,68.2,73.4,67.8L73.4,67.8z"/>
					</g>
				</g>
				<g>
					<g>
						<path class="st8" d="M58.8,60.9c-0.6-1.6-1.7-2.5-3.2-3.4c-1.4-0.8-2.4-2-3.6-2.8c-2.4-1.6-5.2-2.9-8-2.9
							c-2.8,0-5.5,1.2-7.1,3.6c-1.6,2.2-2.6,6.3,0,8.2c1,0.6,2.2,0.2,2.8-0.6c0.6-1,0.2-2.1-0.6-2.8c0.2,0.2,0.2,0.6,0.4,0.2V60
							c0-0.6,0.2-1,0.2-1.4c0.2-0.6,0.6-1.4,1.4-1.8c1.2-1,2.9-1.2,4.4-1c1.8,0.4,3.8,1.4,5.2,2.5c0.8,0.6,1.6,1.4,2.5,2
							c0.6,0.4,1.8,0.8,2.1,1.6c0.4,1,1.4,1.7,2.4,1.4C58.4,63,59.2,61.8,58.8,60.9L58.8,60.9z"/>
					</g>
				</g>
				<g>
					<g>
						<path class="st8" d="M54.4,61.8c0.6,0.8,1.2,1.2,1.8,1.8c0.8,0.8,1.4,1.6,2.2,2.2c1.4,1,3.3,1.8,5.1,2.4c3.7,1,7.6,0.8,11-0.6
							c1-0.4,1.7-1.4,1.4-2.4c-0.2-1-1.4-1.7-2.4-1.4c-2.8,1-5.8,1.4-8.7,0.6c-1.4-0.4-2.9-1-4.1-1.7c-0.6-0.4-1-1-1.6-1.6
							c-0.4-0.6-1-0.8-1.4-1.4C56.6,57.7,53.2,59.7,54.4,61.8L54.4,61.8z"/>
					</g>
				</g>
			</g>
		</g>
		<g>
			<g>
				<path class="st9" d="M37.4,63.5c2.5,0,2.5-4,0-4C34.9,59.6,34.9,63.5,37.4,63.5L37.4,63.5z"/>
			</g>
		</g>
		<g>
			<g>
				<path class="st9" d="M39.3,62c0-0.2,0-0.2,0-0.2c0-0.2,0-0.2,0-0.2c0-0.2,0-0.4-0.2-0.6c-0.2-0.2-0.2-0.2-0.2-0.6l0,0
					c-0.2-0.2-0.2-0.2-0.4-0.4c0.2,0.2,0.2,0.2,0.2,0.4c0,0,0-0.2-0.2-0.2c0.2,0.2,0.2,0.2,0.2,0.6c0,0,0,0,0-0.2
					c0,0.2,0,0.4,0.2,0.6V61c0,0.2,0,0.4-0.2,0.6c0-0.2,0.2-0.6,0.2-1c-0.2,0.2-0.2,0.2-0.2,0.6c0.2-0.2,0.2-0.4,0.2-0.6
					c0.2-0.2,0.2-0.6,0.2-0.8s0-0.6,0-0.8c0-0.2-0.2-0.6-0.4-0.6c-0.2-0.2-0.2-0.4-0.6-0.6c-0.4-0.2-1-0.4-1.6-0.2s-1,0.4-1.2,1
					s-0.6,1-0.6,1.6c-0.2,0.2-0.2,0.6-0.2,0.8c0,0.4,0,0.6,0,1c0.2,0.4,0.4,0.6,0.6,1c-0.2-0.2-0.2-0.2-0.2-0.4c0,0,0,0,0,0.2
					c-0.2-0.2-0.2-0.2-0.2-0.6l0,0c0-0.2,0-0.4-0.2-0.6l0,0c0-0.2,0-0.4,0.2-0.6l0,0c-0.2,0.2-0.2,0.6,0,0.8c0,0.2,0.2,0.6,0.2,0.8
					c0.2,0.2,0.2,0.4,0.6,0.6c0.2,0.2,0.4,0.2,0.6,0.4c0.2,0,0.4,0,0.6,0.2c0.4,0,0.6-0.2,1-0.2c0.2-0.2,0.2-0.2,0.4-0.2
					C39.1,62.6,39.3,62.3,39.3,62L39.3,62z"/>
			</g>
		</g>
		<g>
			<g>
				<path class="st10" d="M39.7,60.9c-0.2-0.6,0.8-1.8,1-2.2c0.4-0.6,0.6-1.4,1.4-1.6c1.6-0.6,3.6-0.4,5.1,0.2
					c3.3,1,5.6,3.8,8.3,6.1c5,4.2,11.6,5.8,17.9,4.6c2.5-0.6,1.4-4.4-1-3.8c-3.7,0.6-7.5,0.2-10.9-1.4c-3.6-1.8-6-5-9.3-7.2
					c-3.2-2-7.2-3.2-10.8-2c-1.7,0.6-2.9,1.6-3.7,3.2c-1,1.7-2.2,3.6-1.6,5.5C36.5,64.5,40.3,63.4,39.7,60.9L39.7,60.9z"/>
			</g>
		</g>
		<g>
			<g>
				<g>
					<path class="st10" d="M73,67.6c1.8-0.4,3.3-1.4,4.8-2.4c1.7-1.4,2.9-2.5,3.8-4.5c1.6-3.4,2.2-7.4,1.7-11.1
						c-0.2-1.8-1-3.6-2.2-4.9c-1.4-1.4-3-2-4.8-2.5c-3.6-0.8-7.5-0.4-10.1,2.4c-2.9,3-3,8.4,1.4,10.3c1,0.4,2.2-0.4,2.4-1.4
						c0.2-1.2-0.4-2-1.4-2.4c-1-0.4-0.6-2.1-0.2-2.8c0.6-1,1.6-1.8,2.8-2.1c2.4-0.6,6.6-0.2,7.8,2.2c0.6,1.4,0.6,3,0.6,4.5
						c0,1.6-0.4,3.3-1,4.9c-0.6,1.6-1.4,2.9-2.6,4c-1.2,1-2.5,1.8-4,2.1c-1,0.2-1.7,1.4-1.4,2.4C70.7,67.4,71.9,67.9,73,67.6
						L73,67.6z"/>
				</g>
			</g>
			<g>
				<g>
					<path class="st10" d="M58.6,60.9c-0.6-1.6-1.7-2.5-3.2-3.4c-1.4-0.8-2.2-1.8-3.6-2.8c-2.4-1.6-5.1-2.9-8-2.9
						c-2.8,0-5.4,1.2-7.1,3.6c-1.6,2.1-2.6,6.3,0,8c1,0.6,2.2,0.2,2.8-0.6c0.6-1,0.2-2.1-0.6-2.8c0.2,0.2,0.2,0.6,0.4,0.4V60
						c0-0.4,0.2-1,0.2-1.4c0.2-0.6,0.6-1.4,1.2-1.7c1.2-1,2.9-1.2,4.4-1c1.8,0.4,3.8,1.4,5.2,2.5c0.8,0.6,1.6,1.4,2.4,2
						c0.6,0.4,1.8,0.8,2.1,1.4c0.4,1,1.4,1.7,2.4,1.4C58.2,63,59,62,58.6,60.9L58.6,60.9z"/>
				</g>
			</g>
			<g>
				<g>
					<path class="st10" d="M54.2,61.8c0.6,0.8,1.2,1.2,1.8,1.8c0.8,0.8,1.4,1.6,2.1,2.1c1.4,1,3.3,1.8,5,2.2c3.6,1,7.5,0.8,11-0.6
						c1-0.4,1.7-1.4,1.4-2.4c-0.2-1-1.4-1.7-2.4-1.4c-2.8,1-5.8,1.4-8.7,0.6c-1.4-0.4-2.9-1-4.1-1.7c-0.6-0.4-1-1-1.4-1.6
						c-0.4-0.4-1-0.8-1.4-1.4c-0.6-1-1.7-1.4-2.8-0.6C54,59.7,53.6,60.9,54.2,61.8L54.2,61.8z"/>
				</g>
			</g>
		</g>
	</g>
</g>
</svg>
