<?xml version="1.0" encoding="utf-8"?>
<!-- Generator: Adobe Illustrator 27.5.0, SVG Export Plug-In . SVG Version: 6.00 Build 0)  -->
<svg version="1.1" id="Layer_1" xmlns="http://www.w3.org/2000/svg" xmlns:xlink="http://www.w3.org/1999/xlink" x="0px" y="0px"
	 viewBox="0 0 250 150" style="enable-background:new 0 0 250 150;" xml:space="preserve">
<style type="text/css">
	.st0{display:none;}
	.st1{display:inline;}
	.st2{fill:#D0801F;}
	.st3{fill:#FFDA6F;}
	.st4{fill:#FEDFB3;}
	.st5{fill:#D1801F;}
	.st6{fill:#E2A139;}
	.st7{fill:#EEC997;}
	.st8{fill:#A35200;}
	.st9{fill:#A25202;}
	.st10{fill:#EAAF4C;}
</style>
<g id="Layer_1_00000149374321102026474750000000063173553754551981_" class="st0">
</g>
<g id="Head" class="st0">
	<g class="st1">
		<ellipse class="st2" cx="126.5" cy="69.5" rx="43.5" ry="42.5"/>
		<ellipse class="st3" cx="126.5" cy="66.5" rx="43.5" ry="42.5"/>
		<ellipse class="st4" cx="126" cy="68" rx="30" ry="29"/>
		<ellipse class="st5" cx="126" cy="64" rx="31" ry="29"/>
		<ellipse class="st6" cx="126" cy="66.5" rx="31" ry="29.5"/>
		<path class="st7" d="M113,57c0.2-2.2,0.8-3.7,1-4c0.3-0.6,0.8-1.8,2-3c0.4-0.4,1.2-1.1,3-2c1.3-0.7,3.3-1.6,6-2
			c1.8-0.3,5.3-0.8,9,1c0.5,0.2,2.3,1.1,4,3c0.7,0.7,2.2,2.4,3,5c0.7,2.3,0.5,4.2,0,8c-0.3,2.1-0.6,3.1-1,4c-0.6,1.3-1.3,2.1-2,3
			c-0.8,1-1.2,1.5-2,2c-1.1,0.7-1.6,0.5-2,1c-0.8,1.2,0.8,3.7,1,4c1.1,1.6,2.2,2.2,2,3c-0.1,0.3-0.3,0.5-1,1c-2.4,1.7-3,2-3,2
			c-1.4,0.7-2,1-4,2c-1.9,1-4,2-4,2l0,0c-0.9,1-1,1-1,1c-0.2-0.1,0.1-0.9,0-2c-0.1-0.9-0.3-1-1-3c-0.3-0.9-0.9-2.8-1-3
			c-0.4-1.3-0.6-1.7-1-2c-0.4-0.2-0.6-0.1-2,0s-1.3-0.1-3,0c-1.5,0.1-1.7,0.2-2,0c-1-0.6-1-2.6-1-3c0-0.1,0-1,0-1l0,0
			c-1-0.8-1-1-1-1c0-0.5,1-0.6,1-1s-0.8-0.4-1-1c-0.1-0.4,0-1,0-1l0,0c0.3,0.9,0-1,0-1c-0.2-0.2-0.5,0.1-1,0s-0.9-0.6-1-1
			c0-0.1-0.2-0.5,0-1c0.3-1,1.3-1.2,2-2c0.6-0.7,0.8-1.5,1-3C113.4,59.7,112.8,59.4,113,57z"/>
		<path class="st5" d="M113,56c0.2-2.2,0.8-3.7,1-4c0.3-0.6,0.8-1.8,2-3c0.4-0.4,1.2-1.1,3-2c1.3-0.7,3.3-1.6,6-2
			c1.8-0.3,5.3-0.8,9,1c0.5,0.2,2.3,1.1,4,3c0.7,0.7,2.2,2.4,3,5c0.7,2.3,0.5,4.2,0,8c-0.3,2.1-0.6,3.1-1,4c-0.6,1.3-1.3,2.1-2,3
			c-0.8,1-1.2,1.5-2,2c-1.1,0.7-1.6,0.5-2,1c-0.8,1.2,0.8,3.7,1,4c1.1,1.6,2.2,2.2,2,3c-0.1,0.3-0.3,0.5-1,1c-2.4,1.7-3,2-3,2
			c-1.4,0.7-2,1-4,2c-1.9,1-4,2-4,2l0,0c-0.9,1-1,1-1,1c-0.2-0.1,0.1-0.9,0-2c-0.1-0.9-0.3-1-1-3c-0.3-0.9-0.9-2.8-1-3
			c-0.4-1.3-0.6-1.7-1-2c-0.4-0.2-0.6-0.1-2,0s-1.3-0.1-3,0c-1.5,0.1-1.7,0.2-2,0c-1-0.6-1-2.6-1-3c0-0.1,0-1,0-1l0,0
			c-1-0.8-1-1-1-1c0-0.5,1-0.6,1-1s-0.8-0.4-1-1c-0.1-0.4,0-1,0-1l0,0c0.3,0.9,0-1,0-1c-0.2-0.2-0.5,0.1-1,0s-0.9-0.6-1-1
			c0-0.1-0.2-0.5,0-1c0.3-1,1.3-1.2,2-2c0.6-0.7,0.8-1.5,1-3C113.4,58.7,112.8,58.4,113,56z"/>
	</g>
</g>
<g id="Layer_3">
</g>
<g id="Layer_4">
	<g class="st0">
		<g class="st1">
			<path class="st8" d="M212.2,80.6c3.1,0,3.1-5,0-5C209.1,75.6,209.1,80.6,212.2,80.6L212.2,80.6z"/>
		</g>
	</g>
	<g class="st0">
		<g class="st1">
			<path class="st8" d="M212.4,80.7c3.1,0,3.1-5,0-5C209.2,75.8,209.2,80.7,212.4,80.7L212.4,80.7z"/>
		</g>
	</g>
	<g class="st0">
		<g class="st1">
			<path class="st9" d="M259.8,58.6c1.7,1.3,3.1,2.6,4.5,4.1c1.3,1.7,1.8,3.3,1.8,5.5c0.2,4-1.7,7.1-4.8,9.4
				c-3.5,2.5-7.3,3.8-11.6,4c-2,0-4,0-5.8-1c-1.7-1-3.6-2.1-4.6-3.6c-1.3,1-2.6,2-4,3c0.2,0.2,0.3,0.2,0.3,0.3
				c0.7-1.5,1.2-2.8,1.8-4.3c-0.8,0-1.3-0.5-2-1c-2.1-2.3-5.8,1.2-3.5,3.5c1.5,1.5,3.3,2.3,5.5,2.5c2,0.2,3.3-3,1.8-4.3
				c-0.2-0.2-0.3-0.2-0.3-0.3c-2-1.7-5.6,0.5-4,3c3,4.3,8.4,7.1,13.6,7.1c5.8,0.2,11.1-1.5,15.9-5c4.1-3.1,6.8-7.8,6.6-13.1
				c0-2.6-0.5-5.3-2-7.6c-1.5-2.3-3.6-4.1-5.8-5.8c-1-0.8-2.5-1-3.5,0C259,55.7,258.8,57.7,259.8,58.6L259.8,58.6z"/>
		</g>
	</g>
	<g>
		<ellipse class="st2" cx="120.1" cy="77.4" rx="71.9" ry="70.3"/>
		<ellipse class="st3" cx="120.1" cy="72.5" rx="71.9" ry="70.3"/>
		<ellipse class="st4" cx="119.3" cy="74.9" rx="49.6" ry="48"/>
		<ellipse class="st5" cx="119.3" cy="68.3" rx="51.3" ry="48"/>
		<ellipse class="st6" cx="119.3" cy="72.5" rx="51.3" ry="48.8"/>
		<g>
			<g>
				<g>
					<g>
						<path class="st10" d="M137,84.7c2.5-0.5,4.5-1.8,6.4-3.5c2-1.5,3.5-3.3,4.5-5.6c2-4.5,2.8-9.4,2.1-14.4
							c-0.7-4.8-3.8-7.8-8.4-8.9c-4.5-1.2-9.6-0.5-12.9,2.8c-3.3,3.5-4.5,10.6,0.8,12.9c1.2,0.5,2.6,0.3,3.5-0.8
							c0.7-1,0.3-2.8-0.8-3.5c-1.5-0.7-1.7-2.1-1-3.5c0.7-1.3,1.8-2.5,3.1-3c3-1.2,8.4-0.7,10.1,2.5c0.8,1.7,1,3.8,1,5.6
							c0,2.1-0.5,4.1-1.2,6.1c-0.7,2-1.5,4-3.1,5.3c-1.7,1.3-3.3,2.6-5.5,3C132.5,80.4,133.8,85.2,137,84.7L137,84.7z"/>
					</g>
				</g>
				<g>
					<g>
						<path class="st10" d="M118.6,76.1c-0.8-2-2.1-3.1-4-4.3c-1.7-1-3-2.5-4.5-3.5c-3-2-6.6-3.6-10.1-3.6s-6.9,1.5-8.9,4.5
							c-2,2.8-3.3,7.9,0,10.3c1.2,0.8,2.8,0.2,3.5-0.8c0.7-1.3,0.2-2.6-0.8-3.5c0.3,0.2,0.3,0.7,0.5,0.3v-0.5c0-0.7,0.2-1.2,0.3-1.8
							c0.3-0.8,0.8-1.7,1.7-2.3c1.5-1.2,3.6-1.5,5.5-1.2c2.3,0.5,4.8,1.8,6.6,3.1c1,0.8,2,1.8,3.1,2.5c0.7,0.5,2.3,1,2.6,2
							c0.5,1.3,1.7,2.1,3,1.7C118.1,78.7,119.1,77.2,118.6,76.1L118.6,76.1z"/>
					</g>
				</g>
				<g>
					<g>
						<path class="st10" d="M113.1,77.2c0.7,1,1.5,1.5,2.3,2.3c1,1,1.7,2,2.8,2.8c1.8,1.3,4.1,2.3,6.4,3c4.6,1.2,9.6,1,13.9-0.7
							c1.3-0.5,2.1-1.7,1.7-3c-0.3-1.2-1.8-2.1-3-1.7c-3.5,1.3-7.3,1.8-10.9,0.8c-1.8-0.5-3.6-1.2-5.1-2.1c-0.8-0.5-1.3-1.3-2-2
							c-0.5-0.7-1.3-1-1.8-1.7C115.8,72.1,111.5,74.6,113.1,77.2L113.1,77.2z"/>
					</g>
				</g>
			</g>
		</g>
		<g>
			<g>
				<path class="st8" d="M91.6,79.4c3.1,0,3.1-5,0-5C88.5,74.4,88.5,79.4,91.6,79.4L91.6,79.4z"/>
			</g>
		</g>
		<g>
			<g>
				<path class="st8" d="M94.1,77.4c0-0.2,0-0.2,0-0.3c0-0.2,0-0.2,0-0.3c0-0.3,0-0.5-0.2-0.7s-0.2-0.3-0.3-0.7l0,0
					c-0.2-0.2-0.3-0.3-0.5-0.5c0.2,0.2,0.3,0.3,0.3,0.5c0,0,0-0.2-0.2-0.2c0.2,0.2,0.2,0.3,0.3,0.7c0,0,0,0,0-0.2
					c0,0.2,0,0.5,0.2,0.7v-0.2c0,0.2,0,0.5-0.2,0.7c0-0.3,0.2-0.8,0.3-1.2c-0.2,0.2-0.2,0.3-0.3,0.7c0.2-0.3,0.2-0.5,0.3-0.8
					c0.2-0.3,0.3-0.7,0.3-1c0-0.3,0-0.7,0-1s-0.2-0.7-0.5-0.8c-0.2-0.3-0.3-0.5-0.7-0.7c-0.5-0.3-1.3-0.5-2-0.3
					c-0.7,0.2-1.2,0.5-1.5,1.2c-0.3,0.7-0.7,1.3-0.8,2c-0.2,0.3-0.2,0.7-0.2,1c0,0.5,0,0.8,0,1.2c0.2,0.5,0.5,0.8,0.8,1.3
					c-0.2-0.2-0.3-0.3-0.3-0.5c0,0,0,0,0,0.2c-0.2-0.2-0.2-0.3-0.3-0.7l0,0c0-0.2,0-0.5-0.2-0.7l0,0c0-0.2,0-0.5,0.2-0.7l0,0
					c-0.2,0.3-0.2,0.7,0,1c0,0.3,0.2,0.7,0.3,1c0.2,0.3,0.3,0.5,0.7,0.7c0.2,0.2,0.5,0.3,0.8,0.5c0.2,0,0.5,0,0.7,0.2
					c0.5,0,0.8-0.2,1.3-0.3c0.2-0.2,0.3-0.3,0.5-0.3C93.8,78.2,94,77.9,94.1,77.4L94.1,77.4z"/>
			</g>
		</g>
		<g>
			<g>
				<path class="st9" d="M94.5,76.1c-0.2-0.7,1-2.3,1.3-2.8c0.5-0.8,0.8-1.7,1.7-2c2-0.8,4.5-0.5,6.4,0.2c4.1,1.3,7.1,4.8,10.4,7.6
					c6.3,5.3,14.6,7.3,22.5,5.8c3.1-0.7,1.8-5.5-1.3-4.8c-4.6,0.8-9.4,0.3-13.7-1.8c-4.5-2.3-7.6-6.3-11.7-9.1
					c-4-2.5-9.1-4-13.6-2.5c-2.1,0.7-3.6,2-4.6,4c-1.2,2.1-2.8,4.5-2,6.9C90.5,80.6,95.3,79.2,94.5,76.1L94.5,76.1z"/>
			</g>
		</g>
		<g>
			<g>
				<g>
					<path class="st9" d="M136.5,84.5c2.3-0.5,4.1-1.7,6-3c2.1-1.7,3.6-3.1,4.8-5.6c2-4.3,2.8-9.3,2.1-13.9
						c-0.3-2.3-1.2-4.5-2.8-6.1c-1.7-1.7-3.8-2.5-6-3.1c-4.5-1-9.4-0.5-12.7,3c-3.6,3.8-3.8,10.6,1.7,12.9c1.2,0.5,2.8-0.5,3-1.7
						c0.3-1.5-0.5-2.5-1.7-3c-1.2-0.5-0.7-2.6-0.2-3.5c0.7-1.3,2-2.3,3.5-2.6c3-0.8,8.3-0.3,9.8,2.8c0.8,1.7,0.8,3.8,0.8,5.6
						c0,2-0.5,4.1-1.2,6.1c-0.7,2-1.7,3.6-3.3,5c-1.5,1.2-3.1,2.3-5,2.6c-1.3,0.3-2.1,1.8-1.7,3C133.6,84.2,135.1,84.9,136.5,84.5
						L136.5,84.5z"/>
				</g>
			</g>
			<g>
				<g>
					<path class="st9" d="M118.3,76.1c-0.8-2-2.1-3.1-4-4.3c-1.7-1-2.8-2.3-4.5-3.5c-3-2-6.4-3.6-10.1-3.6c-3.5,0-6.8,1.5-8.9,4.5
						c-2,2.6-3.3,7.9,0,10.1c1.2,0.8,2.8,0.2,3.5-0.8c0.7-1.3,0.2-2.6-0.8-3.5c0.3,0.2,0.3,0.7,0.5,0.5v-0.5c0-0.5,0.2-1.2,0.3-1.7
						c0.3-0.8,0.8-1.7,1.5-2.1c1.5-1.2,3.6-1.5,5.5-1.2c2.3,0.5,4.8,1.8,6.6,3.1c1,0.8,2,1.8,3,2.5c0.7,0.5,2.3,1,2.6,1.8
						c0.5,1.3,1.7,2.1,3,1.7C117.8,78.7,118.8,77.4,118.3,76.1L118.3,76.1z"/>
				</g>
			</g>
			<g>
				<g>
					<path class="st9" d="M112.8,77.2c0.7,1,1.5,1.5,2.3,2.3c1,1,1.7,2,2.6,2.6c1.8,1.3,4.1,2.3,6.3,2.8c4.5,1.2,9.4,1,13.9-0.7
						c1.3-0.5,2.1-1.7,1.7-3c-0.3-1.2-1.8-2.1-3-1.7c-3.5,1.3-7.3,1.7-10.9,0.8c-1.8-0.5-3.6-1.2-5.1-2.1c-0.8-0.5-1.3-1.3-1.8-2
						c-0.5-0.5-1.3-1-1.8-1.7c-0.7-1.2-2.1-1.7-3.5-0.8C112.6,74.6,112.1,76.1,112.8,77.2L112.8,77.2z"/>
				</g>
			</g>
		</g>
	</g>
</g>
</svg>
